<svg width="859" height="744" viewBox="0 0 859 744" fill="none" xmlns="http://www.w3.org/2000/svg">
<g clip-path="url(#clip0)">
<g opacity="0.8">
<path opacity="0.8" d="M441.771 251.569C524.489 251.569 591.544 199.573 591.544 135.432C591.544 71.2911 524.489 19.2948 441.771 19.2948C359.054 19.2948 291.999 71.2911 291.999 135.432C291.999 199.573 359.054 251.569 441.771 251.569Z" fill="url(#paint0_linear)"/>
</g>
<path d="M441.772 248.99C522.653 248.99 588.221 198.148 588.221 135.432C588.221 72.7157 522.653 21.8742 441.772 21.8742C360.89 21.8742 295.322 72.7157 295.322 135.432C295.322 198.148 360.89 248.99 441.772 248.99Z" fill="#2B9CD4"/>
<path opacity="0.1" d="M318.995 148.053C318.995 85.3372 384.556 34.4952 465.435 34.4952C490.545 34.3568 515.405 39.4933 538.409 49.5727C512.669 32.1716 478.994 21.5979 442.139 21.5979C361.26 21.5979 295.69 72.4398 295.69 135.156C295.69 177.266 325.254 214.024 369.175 233.636C338.425 212.816 318.995 182.2 318.995 148.053Z" fill="white"/>
<path opacity="0.2" d="M441.771 181.074L604.122 462.542L766.473 744H441.771H117.069L279.42 462.542L441.771 181.074Z" fill="#2B9CD4"/>
<g opacity="0.3">
<path opacity="0.3" d="M480.293 579.58L492.902 542.126C497.238 529.083 497.273 514.991 493.002 501.927C488.73 488.862 480.378 477.517 469.178 469.564L469.28 469.502C464.32 466.007 458.881 463.249 453.133 461.314L452.959 461.252L452.765 461.191C447.184 459.302 441.367 458.206 435.482 457.936C433.401 457.828 431.315 457.828 429.234 457.936C425.623 458.125 422.034 458.622 418.507 459.42C417.484 459.645 416.462 459.901 415.531 460.177C414.6 460.454 413.557 460.751 412.586 461.068C410.643 461.713 408.731 462.44 406.859 463.269C405.918 463.678 404.988 464.108 404.078 464.569C401.326 465.929 398.677 467.489 396.152 469.236C395.304 469.82 394.475 470.424 393.657 471.038C383.549 478.732 375.982 489.287 371.937 501.336L352.118 560.346C348.999 569.601 348.061 579.452 349.378 589.13C349.582 590.614 349.838 592.088 350.134 593.552C350.431 595.016 350.799 596.459 351.157 597.892C351.433 598.844 351.719 599.796 352.037 600.738C352.507 602.14 353.059 603.542 353.581 604.914C353.959 605.825 354.358 606.736 354.777 607.637C355.605 609.428 356.526 611.178 357.518 612.888C358.51 614.597 359.563 616.265 360.749 617.883C361.608 619.091 362.518 620.278 363.459 621.424C364.727 622.96 366.057 624.495 367.468 625.857C373.576 632.02 380.886 636.86 388.943 640.074L389.291 640.218C389.723 639.449 390.201 638.708 390.722 637.996C393.79 633.789 399.128 630.831 404.211 631.937C404.579 632.019 404.947 632.131 405.315 632.244C407.892 633.155 410.428 634.782 412.913 635.581C413.817 635.987 414.799 636.191 415.789 636.179C416.78 636.167 417.756 635.938 418.65 635.509C423.62 632.858 421.779 624.495 426.043 620.831C426.242 620.662 426.45 620.504 426.667 620.36C426.607 620.286 426.552 620.207 426.504 620.124C429.796 618.077 434.357 619.439 438.151 620.759C442.242 622.202 447.58 623.175 450.423 619.828C452.345 617.535 452.202 614.044 454.033 611.639C456.16 608.875 460.168 608.568 463.635 609.059L463.809 609.111C470.456 611.854 477.716 607.299 477.205 600.123C476.602 590.553 479.608 581.535 480.293 579.58Z" fill="url(#paint1_linear)"/>
</g>
<path d="M391.878 634.844C394.864 630.75 399.987 627.883 404.896 628.999C409.804 630.115 414.457 634.793 418.824 632.449C424.796 629.255 420.562 617.514 430.257 616.644C432.277 616.511 434.3 616.862 436.157 617.668C440.248 619.336 446.649 621.22 449.799 617.463C451.65 615.252 451.517 611.885 453.286 609.592C455.331 606.93 459.227 606.593 462.551 607.105L462.715 607.156C469.126 609.807 476.142 605.405 475.64 598.486C474.996 589.273 477.921 580.593 478.555 578.71L490.704 542.567C495.871 527.073 494.7 510.161 487.448 495.528C480.195 480.895 467.449 469.731 451.998 464.477C436.519 459.311 419.628 460.488 405.013 467.749C390.399 475.01 379.25 487.766 374.002 503.23L354.849 560.07C349.871 575.019 350.784 591.307 357.402 605.605C364.021 619.902 375.844 631.13 390.456 636.993C390.888 636.25 391.362 635.532 391.878 634.844Z" fill="white"/>
<path opacity="0.2" d="M414.519 504.213C418.195 504.213 421.176 501.229 421.176 497.549C421.176 493.869 418.195 490.885 414.519 490.885C410.842 490.885 407.861 493.869 407.861 497.549C407.861 501.229 410.842 504.213 414.519 504.213Z" fill="black"/>
<path opacity="0.2" d="M452.376 516.956C456.053 516.956 459.033 513.973 459.033 510.293C459.033 506.613 456.053 503.629 452.376 503.629C448.699 503.629 445.719 506.613 445.719 510.293C445.719 513.973 448.699 516.956 452.376 516.956Z" fill="black"/>
<path d="M431.291 531.373C433.049 526.144 431.649 520.953 428.165 519.779C424.68 518.605 420.43 521.893 418.672 527.122C416.914 532.351 418.313 537.542 421.798 538.716C425.283 539.89 429.533 536.602 431.291 531.373Z" fill="#E0E0E0"/>
<path d="M565.028 509.013C570.54 509.013 575.008 504.54 575.008 499.023C575.008 493.506 570.54 489.033 565.028 489.033C559.515 489.033 555.047 493.506 555.047 499.023C555.047 504.54 559.515 509.013 565.028 509.013Z" fill="white"/>
<path d="M596.647 488.306C599.403 488.306 601.638 486.07 601.638 483.311C601.638 480.552 599.403 478.316 596.647 478.316C593.891 478.316 591.657 480.552 591.657 483.311C591.657 486.07 593.891 488.306 596.647 488.306Z" fill="white"/>
<g opacity="0.5">
<g opacity="0.3">
<path opacity="0.3" d="M493.588 177.307L506.197 139.854C510.533 126.811 510.567 112.718 506.296 99.654C502.025 86.5897 493.673 75.2446 482.472 67.2911L482.574 67.2297C477.615 63.7347 472.176 60.9766 466.427 59.0409L466.253 58.9795L466.059 58.9181C460.479 57.0289 454.661 55.9332 448.777 55.663C446.695 55.5555 444.61 55.5555 442.528 55.663C438.917 55.8522 435.328 56.3488 431.801 57.1473C430.779 57.3724 429.756 57.6283 428.825 57.9047C427.895 58.1811 426.852 58.4779 425.88 58.7952C423.937 59.4401 422.025 60.1669 420.154 60.996C419.213 61.4054 418.282 61.8353 417.372 62.2959C414.62 63.656 411.971 65.2161 409.447 66.9635C408.598 67.547 407.77 68.1509 406.952 68.7651C396.843 76.4594 389.277 87.0146 385.231 99.0635L365.413 158.074C362.294 167.328 361.356 177.18 362.672 186.857C362.877 188.341 363.132 189.815 363.429 191.279C363.725 192.743 364.094 194.186 364.451 195.619C364.728 196.571 365.014 197.523 365.331 198.465C365.801 199.867 366.354 201.269 366.875 202.641C367.253 203.552 367.652 204.463 368.072 205.364C368.9 207.155 369.82 208.905 370.812 210.615C371.804 212.324 372.857 213.993 374.044 215.61C374.903 216.818 375.813 218.005 376.754 219.152C378.022 220.687 379.351 222.171 380.762 223.584C386.87 229.748 394.18 234.587 402.237 237.802L402.585 237.945C403.018 237.177 403.496 236.435 404.017 235.724C407.084 231.517 412.423 228.558 417.505 229.664C417.873 229.746 418.241 229.858 418.609 229.971C421.186 230.882 423.722 232.51 426.207 233.308C427.111 233.714 428.093 233.919 429.084 233.906C430.075 233.894 431.051 233.665 431.944 233.236C436.914 230.585 435.074 222.222 439.338 218.558C439.536 218.389 439.745 218.232 439.962 218.087C439.901 218.013 439.847 217.934 439.798 217.852C443.091 215.804 447.652 217.166 451.446 218.486C455.536 219.93 460.874 220.902 463.717 217.555C465.64 215.262 465.496 211.772 467.327 209.366C469.454 206.602 473.463 206.295 476.929 206.787H477.103C483.75 209.53 491.011 204.975 490.499 197.799C489.896 188.28 492.903 179.262 493.588 177.307Z" fill="url(#paint2_linear)"/>
</g>
<path opacity="0.5" d="M405.172 232.571C408.158 228.477 413.281 225.611 418.19 226.726C423.099 227.842 427.752 232.52 432.118 230.176C438.09 226.982 433.857 215.241 443.551 214.371C445.571 214.238 447.594 214.589 449.452 215.395C453.542 217.063 459.944 218.947 463.093 215.19C464.944 212.979 464.811 209.612 466.58 207.319C468.626 204.657 472.522 204.32 475.845 204.831L476.009 204.883C482.421 207.534 489.436 203.132 488.935 196.213C488.291 187 491.215 178.32 491.849 176.437L503.998 140.294C509.165 124.8 507.995 107.888 500.742 93.2549C493.489 78.6221 480.744 67.4583 465.292 62.2037C449.814 57.0381 432.922 58.2145 418.308 65.4759C403.693 72.7373 392.544 85.4934 387.297 100.957L368.143 157.797C363.165 172.746 364.078 189.034 370.697 203.332C377.315 217.629 389.138 228.857 403.751 234.72C404.182 233.977 404.657 233.259 405.172 232.571Z" fill="white"/>
<path opacity="0.2" d="M427.813 101.94C431.489 101.94 434.47 98.9563 434.47 95.2761C434.47 91.5959 431.489 88.6125 427.813 88.6125C424.136 88.6125 421.155 91.5959 421.155 95.2761C421.155 98.9563 424.136 101.94 427.813 101.94Z" fill="black"/>
<path opacity="0.2" d="M465.67 114.684C469.347 114.684 472.327 111.7 472.327 108.02C472.327 104.34 469.347 101.356 465.67 101.356C461.993 101.356 459.013 104.34 459.013 108.02C459.013 111.7 461.993 114.684 465.67 114.684Z" fill="black"/>
</g>
<path opacity="0.1" d="M582.402 101.776C584.303 109.131 585.262 116.698 585.255 124.295C585.255 187.011 519.695 237.853 438.816 237.853C372.622 237.812 316.695 203.767 298.604 157.05C312.042 209.018 371.21 248.15 442.19 248.15C523.069 248.15 588.64 197.308 588.64 134.592C588.619 123.36 586.503 112.231 582.402 101.776Z" fill="black"/>
<g opacity="0.8">
<path opacity="0.8" d="M441.771 264.18C609.047 264.18 744.651 228.704 744.651 184.943C744.651 141.182 609.047 105.707 441.771 105.707C274.496 105.707 138.892 141.182 138.892 184.943C138.892 228.704 274.496 264.18 441.771 264.18Z" fill="url(#paint3_linear)"/>
</g>
<path d="M441.772 108.327C280.014 108.327 148.873 142.628 148.873 184.953H734.67C734.67 142.628 603.529 108.327 441.772 108.327Z" fill="white"/>
<path d="M441.772 261.57C603.529 261.57 734.67 227.269 734.67 184.953H148.873C148.873 227.269 280.014 261.57 441.772 261.57Z" fill="white"/>
<path opacity="0.05" d="M441.772 261.57C603.529 261.57 734.67 227.269 734.67 184.953H148.873C148.873 227.269 280.014 261.57 441.772 261.57Z" fill="black"/>
<path opacity="0.05" d="M563.954 164.952H319.589C309.864 164.952 301.979 172.844 301.979 182.579V187.308C301.979 197.042 309.864 204.934 319.589 204.934H563.954C573.679 204.934 581.564 197.042 581.564 187.308V182.579C581.564 172.844 573.679 164.952 563.954 164.952Z" fill="black"/>
<path opacity="0.5" d="M136.918 59.174C136.074 58.805 135.393 58.1383 135.007 57.3006C134.621 56.4629 134.555 55.5123 134.822 54.6293C134.865 54.4929 134.892 54.3521 134.904 54.2096C134.93 53.8045 134.825 53.4018 134.604 53.0615C134.382 52.7212 134.057 52.4616 133.677 52.3212C133.296 52.1808 132.881 52.1672 132.492 52.2825C132.103 52.3977 131.762 52.6357 131.519 52.9608C131.437 53.0755 131.369 53.1991 131.314 53.3293C130.948 54.1765 130.282 54.8587 129.444 55.2458C128.607 55.6328 127.656 55.6976 126.774 55.4277C126.638 55.3858 126.497 55.3583 126.355 55.3458C125.95 55.3197 125.548 55.4251 125.208 55.6464C124.868 55.8677 124.608 56.1931 124.468 56.5739C124.328 56.9548 124.314 57.3709 124.429 57.7601C124.545 58.1493 124.782 58.4909 125.107 58.7339C125.22 58.8211 125.344 58.8934 125.475 58.9488C126.32 59.3179 127 59.9845 127.387 60.8222C127.773 61.66 127.839 62.6105 127.572 63.4936C127.53 63.6267 127.502 63.764 127.49 63.903C127.461 64.309 127.565 64.7134 127.785 65.0555C128.005 65.3977 128.33 65.6592 128.711 65.801C129.093 65.9427 129.509 65.9571 129.899 65.8419C130.289 65.7267 130.632 65.4882 130.875 65.1621C130.959 65.0451 131.028 64.9178 131.079 64.7833C131.455 63.9455 132.125 63.2746 132.961 62.8974C133.798 62.5202 134.744 62.4628 135.62 62.7361C135.756 62.778 135.897 62.8055 136.039 62.818C136.444 62.8442 136.846 62.7387 137.186 62.5174C137.526 62.2961 137.785 61.9707 137.926 61.5899C138.066 61.209 138.079 60.7929 137.964 60.4037C137.849 60.0145 137.611 59.6729 137.287 59.4299C137.176 59.3283 137.052 59.2422 136.918 59.174Z" fill="#4D8AF0"/>
<path opacity="0.5" d="M657.431 372.394C656.596 372.016 655.927 371.346 655.55 370.509C655.174 369.672 655.115 368.726 655.386 367.849C655.429 367.713 655.456 367.572 655.468 367.43C655.494 367.025 655.389 366.622 655.167 366.282C654.946 365.941 654.621 365.682 654.241 365.541C653.86 365.401 653.445 365.387 653.056 365.502C652.667 365.618 652.326 365.856 652.083 366.181C652.001 366.295 651.932 366.419 651.878 366.549C651.512 367.396 650.846 368.079 650.008 368.466C649.171 368.853 648.22 368.918 647.338 368.648C647.202 368.606 647.061 368.578 646.919 368.566C646.514 368.54 646.112 368.645 645.772 368.866C645.432 369.088 645.172 369.413 645.032 369.794C644.892 370.175 644.878 370.591 644.993 370.98C645.109 371.369 645.346 371.711 645.671 371.954C645.784 372.041 645.908 372.113 646.039 372.169C646.875 372.547 647.544 373.217 647.92 374.054C648.297 374.891 648.355 375.837 648.085 376.714C648.043 376.847 648.015 376.984 648.003 377.123C647.974 377.529 648.078 377.933 648.298 378.276C648.518 378.618 648.843 378.879 649.224 379.021C649.605 379.163 650.022 379.177 650.412 379.062C650.802 378.947 651.144 378.708 651.388 378.382C651.472 378.265 651.54 378.138 651.592 378.003C651.968 377.165 652.638 376.495 653.474 376.117C654.311 375.74 655.257 375.683 656.133 375.956C656.269 375.998 656.41 376.025 656.552 376.038C656.957 376.064 657.359 375.959 657.699 375.737C658.039 375.516 658.298 375.191 658.438 374.81C658.579 374.429 658.592 374.013 658.477 373.624C658.362 373.235 658.124 372.893 657.799 372.65C657.689 372.548 657.565 372.462 657.431 372.394Z" fill="#4D8AF0"/>
<path opacity="0.5" d="M82.7197 517.745C81.8748 517.376 81.1947 516.709 80.8082 515.871C80.4218 515.033 80.356 514.083 80.6233 513.2C80.6663 513.063 80.6937 512.923 80.7052 512.78C80.7313 512.375 80.6259 511.972 80.4048 511.632C80.1837 511.292 79.8587 511.032 79.4782 510.892C79.0976 510.751 78.682 510.738 78.2932 510.853C77.9043 510.968 77.5631 511.206 77.3203 511.531C77.2384 511.646 77.1698 511.77 77.1158 511.9C76.7489 512.747 76.0831 513.429 75.2456 513.816C74.4081 514.203 73.4575 514.268 72.5753 513.998C72.4388 513.956 72.2983 513.929 72.156 513.916C71.7513 513.89 71.349 513.996 71.0091 514.217C70.6691 514.438 70.4097 514.764 70.2694 515.144C70.1292 515.525 70.1156 515.941 70.2308 516.331C70.3459 516.72 70.5836 517.061 70.9084 517.304C71.0214 517.392 71.1451 517.464 71.2766 517.519C72.1215 517.888 72.8016 518.555 73.1881 519.393C73.5745 520.231 73.6403 521.181 73.373 522.064C73.331 522.197 73.3036 522.335 73.2912 522.474C73.2626 522.88 73.3661 523.284 73.5863 523.626C73.8065 523.968 74.1315 524.23 74.5127 524.372C74.8938 524.513 75.3106 524.528 75.7006 524.413C76.0906 524.297 76.4328 524.059 76.676 523.733C76.7601 523.616 76.8288 523.488 76.8805 523.354C77.2565 522.516 77.9261 521.845 78.7627 521.468C79.5993 521.091 80.545 521.033 81.421 521.307C81.5575 521.349 81.698 521.376 81.8403 521.389C82.245 521.415 82.6472 521.309 82.9872 521.088C83.3272 520.867 83.5866 520.541 83.7269 520.16C83.8671 519.78 83.8807 519.364 83.7655 518.974C83.6504 518.585 83.4127 518.244 83.0879 518C82.9773 517.899 82.8535 517.813 82.7197 517.745Z" fill="#4D8AF0"/>
<path opacity="0.5" d="M26.4757 178.935C25.6402 178.557 24.9713 177.886 24.5947 177.049C24.2181 176.212 24.1597 175.267 24.4305 174.39C24.4734 174.253 24.5008 174.113 24.5123 173.97C24.5384 173.565 24.433 173.162 24.2119 172.822C23.9908 172.482 23.6658 172.222 23.2853 172.082C22.9048 171.941 22.4891 171.928 22.1003 172.043C21.7114 172.158 21.3702 172.396 21.1274 172.721C21.0455 172.836 20.9769 172.96 20.9229 173.09C20.556 173.937 19.8902 174.619 19.0527 175.006C18.2152 175.393 17.2646 175.458 16.3825 175.188C16.2459 175.146 16.1054 175.119 15.9632 175.106C15.5585 175.08 15.1562 175.186 14.8162 175.407C14.4762 175.628 14.2168 175.954 14.0766 176.335C13.9363 176.715 13.9227 177.131 14.0379 177.521C14.153 177.91 14.3907 178.251 14.7156 178.494C14.8285 178.582 14.9523 178.654 15.0837 178.709C15.9286 179.078 16.6088 179.745 16.9952 180.583C17.3816 181.421 17.4474 182.371 17.1801 183.254C17.1381 183.387 17.1107 183.525 17.0983 183.664C17.0697 184.07 17.1732 184.474 17.3934 184.816C17.6137 185.158 17.9387 185.42 18.3198 185.562C18.701 185.703 19.1177 185.718 19.5077 185.602C19.8977 185.487 20.2399 185.249 20.4832 184.923C20.5672 184.806 20.6359 184.678 20.6877 184.544C21.0636 183.706 21.7332 183.035 22.5698 182.658C23.4064 182.281 24.3521 182.223 25.2281 182.497C25.3646 182.539 25.5051 182.566 25.6474 182.579C26.0521 182.605 26.4544 182.499 26.7943 182.278C27.1343 182.057 27.3937 181.731 27.534 181.35C27.6742 180.97 27.6878 180.554 27.5727 180.164C27.4575 179.775 27.2198 179.434 26.895 179.19C26.7687 179.085 26.6274 178.999 26.4757 178.935Z" fill="#4D8AF0"/>
<path opacity="0.5" d="M647.205 6.97065C646.37 6.59258 645.701 5.92216 645.324 5.08531C644.948 4.24847 644.889 3.30279 645.16 2.4259C645.203 2.28952 645.23 2.14874 645.242 2.00622C645.268 1.60114 645.163 1.19845 644.941 0.858158C644.72 0.517869 644.395 0.258187 644.015 0.117803C643.634 -0.0225812 643.219 -0.036153 642.83 0.0791075C642.441 0.194368 642.1 0.432291 641.857 0.757433C641.775 0.872123 641.706 0.995746 641.652 1.12593C641.277 1.96374 640.607 2.63466 639.77 3.01188C638.934 3.38909 637.988 3.44645 637.112 3.17312C636.976 3.13125 636.835 3.1038 636.693 3.09123C636.252 2.99867 635.793 3.06745 635.398 3.28507C635.004 3.50269 634.7 3.85471 634.543 4.27719C634.386 4.69966 634.385 5.16456 634.541 5.58743C634.698 6.0103 635 6.36308 635.394 6.58169C635.507 6.66891 635.631 6.74116 635.762 6.79664C636.598 7.17472 637.267 7.84514 637.643 8.68198C638.02 9.51883 638.078 10.4645 637.807 11.3414C637.765 11.4745 637.738 11.6118 637.726 11.7508C637.682 12.1723 637.782 12.5961 638.01 12.9537C638.237 13.3112 638.578 13.5817 638.977 13.7213C639.377 13.861 639.812 13.8617 640.212 13.7233C640.612 13.5849 640.954 13.3155 641.182 12.9587C641.266 12.8417 641.335 12.7144 641.387 12.58C641.763 11.7421 642.432 11.0712 643.269 10.694C644.105 10.3168 645.051 10.2594 645.927 10.5328C646.064 10.5746 646.204 10.6021 646.346 10.6147C646.751 10.6408 647.153 10.5353 647.493 10.314C647.833 10.0927 648.093 9.76738 648.233 9.3865C648.373 9.00562 648.387 8.58958 648.272 8.20036C648.156 7.81114 647.919 7.46957 647.594 7.22655C647.477 7.12338 647.346 7.03724 647.205 6.97065Z" fill="#4D8AF0"/>
<g opacity="0.5">
<path opacity="0.5" d="M115.556 263.934H112.488V281.335H115.556V263.934Z" fill="#47E6B1"/>
<path opacity="0.5" d="M122.714 274.17V271.099H105.33V274.17H122.714Z" fill="#47E6B1"/>
</g>
<g opacity="0.5">
<path opacity="0.5" d="M851.842 182.046H848.774V199.448H851.842V182.046Z" fill="#47E6B1"/>
<path opacity="0.5" d="M859 192.282V189.212H841.616V192.282H859Z" fill="#47E6B1"/>
</g>
<g opacity="0.5">
<path opacity="0.5" d="M749.58 467.629H746.512V485.031H749.58V467.629Z" fill="#47E6B1"/>
<path opacity="0.5" d="M756.738 477.865V474.795H739.354V477.865H756.738Z" fill="#47E6B1"/>
</g>
<path opacity="0.5" d="M739.354 89.9229C742.742 89.9229 745.489 87.1732 745.489 83.7813C745.489 80.3894 742.742 77.6397 739.354 77.6397C735.965 77.6397 733.218 80.3894 733.218 83.7813C733.218 87.1732 735.965 89.9229 739.354 89.9229Z" fill="#F55F44"/>
<path opacity="0.5" d="M6.13571 19.2948C9.52438 19.2948 12.2714 16.5451 12.2714 13.1532C12.2714 9.76133 9.52438 7.01166 6.13571 7.01166C2.74705 7.01166 0 9.76133 0 13.1532C0 16.5451 2.74705 19.2948 6.13571 19.2948Z" fill="#F55F44"/>
<path opacity="0.5" d="M190.207 372.435C193.596 372.435 196.343 369.685 196.343 366.293C196.343 362.902 193.596 360.152 190.207 360.152C186.818 360.152 184.071 362.902 184.071 366.293C184.071 369.685 186.818 372.435 190.207 372.435Z" fill="#F55F44"/>
<path opacity="0.05" d="M239.293 165.239C258.495 165.239 274.062 162.031 274.062 158.074C274.062 154.117 258.495 150.909 239.293 150.909C220.091 150.909 204.524 154.117 204.524 158.074C204.524 162.031 220.091 165.239 239.293 165.239Z" fill="black"/>
<path opacity="0.05" d="M239.293 219.49C258.495 219.49 274.062 216.282 274.062 212.324C274.062 208.367 258.495 205.159 239.293 205.159C220.091 205.159 204.524 208.367 204.524 212.324C204.524 216.282 220.091 219.49 239.293 219.49Z" fill="black"/>
<path opacity="0.05" d="M635.046 165.239C654.249 165.239 669.815 162.031 669.815 158.074C669.815 154.117 654.249 150.909 635.046 150.909C615.844 150.909 600.277 154.117 600.277 158.074C600.277 162.031 615.844 165.239 635.046 165.239Z" fill="black"/>
<path opacity="0.05" d="M635.046 219.49C654.249 219.49 669.815 216.282 669.815 212.324C669.815 208.367 654.249 205.159 635.046 205.159C615.844 205.159 600.277 208.367 600.277 212.324C600.277 216.282 615.844 219.49 635.046 219.49Z" fill="black"/>
<path opacity="0.05" d="M441.771 134.531C460.974 134.531 476.54 131.323 476.54 127.366C476.54 123.409 460.974 120.201 441.771 120.201C422.569 120.201 407.002 123.409 407.002 127.366C407.002 131.323 422.569 134.531 441.771 134.531Z" fill="black"/>
<path opacity="0.05" d="M467.337 59.8086C486.539 59.8086 502.106 56.6006 502.106 52.6434C502.106 48.6862 486.539 45.4783 467.337 45.4783C448.135 45.4783 432.568 48.6862 432.568 52.6434C432.568 56.6006 448.135 59.8086 467.337 59.8086Z" fill="black"/>
<path opacity="0.05" d="M400.867 90.5164C420.069 90.5164 435.636 87.3085 435.636 83.3513C435.636 79.3941 420.069 76.1861 400.867 76.1861C381.664 76.1861 366.098 79.3941 366.098 83.3513C366.098 87.3085 381.664 90.5164 400.867 90.5164Z" fill="black"/>
<path opacity="0.05" d="M528.694 103.823C547.897 103.823 563.463 100.615 563.463 96.658C563.463 92.7008 547.897 89.4928 528.694 89.4928C509.492 89.4928 493.925 92.7008 493.925 96.658C493.925 100.615 509.492 103.823 528.694 103.823Z" fill="black"/>
<path opacity="0.05" d="M441.771 240.985C460.974 240.985 476.54 237.777 476.54 233.82C476.54 229.863 460.974 226.655 441.771 226.655C422.569 226.655 407.002 229.863 407.002 233.82C407.002 237.777 422.569 240.985 441.771 240.985Z" fill="black"/>
</g>
<defs>
<linearGradient id="paint0_linear" x1="441.771" y1="251.579" x2="441.771" y2="19.2948" gradientUnits="userSpaceOnUse">
<stop stop-color="#808080" stop-opacity="0.25"/>
<stop offset="0.54" stop-color="#808080" stop-opacity="0.12"/>
<stop offset="1" stop-color="#808080" stop-opacity="0.1"/>
</linearGradient>
<linearGradient id="paint1_linear" x1="-48163.9" y1="352379" x2="-37334.7" y2="320260" gradientUnits="userSpaceOnUse">
<stop stop-color="#808080" stop-opacity="0.25"/>
<stop offset="0.54" stop-color="#808080" stop-opacity="0.12"/>
<stop offset="1" stop-color="#808080" stop-opacity="0.1"/>
</linearGradient>
<linearGradient id="paint2_linear" x1="-41886.3" y1="281418" x2="-31057.1" y2="249299" gradientUnits="userSpaceOnUse">
<stop stop-color="#808080" stop-opacity="0.25"/>
<stop offset="0.54" stop-color="#808080" stop-opacity="0.12"/>
<stop offset="1" stop-color="#808080" stop-opacity="0.1"/>
</linearGradient>
<linearGradient id="paint3_linear" x1="261827" y1="41006" x2="261827" y2="16471.2" gradientUnits="userSpaceOnUse">
<stop stop-color="#808080" stop-opacity="0.25"/>
<stop offset="0.54" stop-color="#808080" stop-opacity="0.12"/>
<stop offset="1" stop-color="#808080" stop-opacity="0.1"/>
</linearGradient>
<clipPath id="clip0">
<rect width="859" height="744" fill="white"/>
</clipPath>
</defs>
</svg>
